# xmcd CD database file
#
# Track frame offsets:
#	150
#	11475
#	25537
#	43730
#	62080
#	72642
#	87320
#	102757
#	118882
#	132970
#	145992
#	158160
#	170737
#	182837
#	194020
#	207405
#	221477
#	235392
#	246890
#	257512
#	269772
#	286765
#	299695
#	312272
#	322270
#	333715
#	347497
#	360257
#	372317
#
# Disc length: 5165 seconds
#
# Revision: 0
# Processed by: cddbd v1.5.2PL0 Copyright (c) Steve Scherf et al.
# Submitted via: CDex 1.51
#
DISCID=dc142b1d
DTITLE=Der Jazz in Deutschland - Vol 1 CD 2 - vom Cakewalk zum Jazz
DYEAR=2008
DGENRE=Jazz
TTITLE0=Oh You Drummer
TTITLE1=Russian Rag (Foxtrot)
TTITLE2=Mammy O' Mine (One Step)
TTITLE3=After You Get What You Want, You Don't Want It (Foxtrot)
TTITLE4=Ja-Da (Shimmy-Foxtrot)
TTITLE5=How 'ya Gonna Keep 'em Down On The Farm (One Step)
TTITLE6=Whose Baby Are You? (One Step)
TTITLE7=I've Got A Cross Eyed Papa
TTITLE8=Henpecked Blues
TTITLE9=Oh Sister, Ain't That Hot!
TTITLE10=He's The Hottest Man In Town [Hahn im Korbe]
TTITLE11=Shanghai Shuffle
TTITLE12=Jim Dandy (A Strut Dance)
TTITLE13=Copenhagen
TTITLE14=Big Bad Bill
TTITLE15=Sugar Foot Stomp 
TTITLE16=I Never Realized [Sans m'en apercevoir]
TTITLE17=I Like Pie, I like Cake, But I Like You Best Of All
TTITLE18=Milenberg Joys
TTITLE19=Hi-diddle-diddle
TTITLE20=Stampede [Panik]
TTITLE21=Stockholm Stomp 
TTITLE22=Say, Mister! Have You Met Rosie's Sister?
TTITLE23=Bugle Call Rag
TTITLE24=Static Strut J
TTITLE25=Heut' war ich bei der Frida
TTITLE26=Positively, Absolutely 
TTITLE27=Ain't She Sweet?
TTITLE28=My Regular Gal
EXTD=YEAR: 2008
EXTT0=
EXTT1=
EXTT2=
EXTT3=
EXTT4=
EXTT5=
EXTT6=
EXTT7=
EXTT8=
EXTT9=
EXTT10=
EXTT11=
EXTT12=
EXTT13=
EXTT14=
EXTT15=
EXTT16=
EXTT17=
EXTT18=
EXTT19=
EXTT20=
EXTT21=
EXTT22=
EXTT23=
EXTT24=
EXTT25=
EXTT26=
EXTT27=
EXTT28=
PLAYORDER=
